<svg width="30" height="30" viewBox="0 0 30 30" fill="none" xmlns="http://www.w3.org/2000/svg">
<g clip-path="url(#clip0_112:345)">
<path d="M28.6997 6.63774L16.2983 0.27495C15.5839 -0.09165 14.4148 -0.09165 13.7004 0.27495L1.29896 6.63774C0.584482 7.00426 0 7.90405 0 8.63717V21.3628C0.0555815 22.2166 0.546301 22.9237 1.29896 23.3623L13.7004 29.725C14.4148 30.0917 15.5839 30.0917 16.2983 29.725L28.6997 23.3623C29.5073 22.8849 29.967 22.1665 29.9987 21.3628V8.63717C29.9697 7.8658 29.4499 7.08779 28.6997 6.63774ZM4.99978 15C4.94103 6.32296 18.0191 2.4915 23.6589 10.5541L19.3313 12.7795C16.7189 8.93964 10.2324 10.3126 9.99957 15C10.0695 19.3201 16.4449 21.3269 19.3316 17.2203L23.6592 19.4456C18.6889 27.1134 5.25045 24.3547 4.99978 15ZM24.9989 15.4937H23.8878V16.4811H22.7769V15.4937H21.6657V14.5063H22.7769V13.519H23.8878V14.5063H24.9989V15.4937ZM29.1654 15.4937H28.0543V16.4811H26.9434V15.4937H25.8322V14.5063H26.9434V13.519H28.0543V14.5063H29.1654V15.4937Z" fill="black"/>
</g>
<defs>
<clipPath id="clip0_112:345">
<rect width="30" height="30" fill="white"/>
</clipPath>
</defs>
</svg>
