<svg width="45" height="30" viewBox="0 0 45 30" fill="none" xmlns="http://www.w3.org/2000/svg">
<path d="M0.00036288 27.3256H1.49118V19.7683L3.79926 26.3567C4.07144 27.1542 4.44415 27.436 5.1754 27.436C5.90666 27.436 6.26521 27.1542 6.53739 26.3567L8.84547 19.7683V27.3256H10.3363V19.7809C10.3363 19.0448 10.1069 18.6885 9.63371 18.5049C8.50108 18.0512 7.74115 18.4439 7.39712 19.4254L5.13222 25.9276L2.93918 19.425C2.6093 18.4439 1.83522 18.0512 0.702586 18.5045C0.229357 18.6885 0 19.0444 0 19.7804V27.3256H0.00036288ZM11.5763 21.1737H13.0668V25.3374C13.053 25.5633 13.1234 26.0944 13.94 26.1112C14.3566 26.1196 17.156 26.1112 17.1822 26.1112V21.1532H18.6762C18.6831 21.1532 18.6748 27.9144 18.6748 27.9424C18.6828 29.6101 17.0631 29.9721 16.3163 30H11.6086V28.7124C11.6166 28.7124 16.313 28.7138 16.3246 28.712C17.2845 28.582 17.1709 27.9699 17.1705 27.764V27.2618H14.002C12.5279 27.2446 11.5887 26.4186 11.5767 25.4683C11.576 25.3812 11.609 21.2157 11.5763 21.1737V21.1737Z" fill="#00618A"/>
<path d="M19.8256 27.3256H24.1122C24.6141 27.3256 25.1019 27.191 25.4887 26.9581C26.1336 26.5779 26.449 26.0627 26.449 25.3873V23.9888C26.449 23.4368 26.0908 22.9211 25.3882 22.5782C25.0155 22.3938 24.5564 22.2964 24.1118 22.2964H22.3053C21.7032 22.2964 21.4165 22.0635 21.345 21.5483C21.3309 21.4868 21.3309 21.4379 21.3309 21.3764V20.5053C21.3309 20.4563 21.3309 20.407 21.345 20.3459C21.4165 19.9532 21.5744 19.8428 22.105 19.7813L22.2483 19.7692H26.5063V18.4938H22.3202C21.7181 18.4938 21.4028 18.5427 21.1161 18.6531C20.2273 19.009 19.8397 19.5731 19.8397 20.5546V21.6708C19.8397 22.5298 20.6 23.2658 21.8756 23.4377C22.0193 23.4494 22.1623 23.4624 22.3057 23.4624H23.8542C23.9115 23.4624 23.9689 23.4624 24.012 23.4741C24.4853 23.523 24.6856 23.6338 24.8293 23.8542C24.9153 23.9646 24.9436 24.0755 24.9436 24.1975V25.3141C24.9436 25.4488 24.8721 25.6206 24.7288 25.7679C24.6 25.9151 24.3848 26.0134 24.0981 26.038L23.9402 26.0502H19.8256V27.3256V27.3256ZM35.7502 25.1054C35.7502 26.4177 36.5102 27.1537 38.0438 27.3014C38.1872 27.3135 38.3305 27.3256 38.4739 27.3256H42.3591V26.0502H38.4456C37.5709 26.0502 37.2414 25.7679 37.2414 25.0929V18.4928H35.7506V25.1054H35.7502ZM27.4005 25.1716V20.6226C27.4005 19.4674 28.0327 18.7663 29.2825 18.545C29.4117 18.5203 29.5558 18.5082 29.6846 18.5082H32.5149C32.6586 18.5082 32.7878 18.5203 32.9312 18.545C34.181 18.7663 34.8136 19.4669 34.8136 20.6226V25.1716C34.8136 26.1098 34.545 26.611 33.9263 26.938L35.3953 28.6398H33.6639L32.4757 27.2627L31.2796 27.3601H29.6846C29.4117 27.3601 29.1247 27.3112 28.8086 27.2003C27.8603 26.8686 27.4005 26.229 27.4005 25.1716V25.1716ZM29.0096 25.0612C29.0096 25.1227 29.0238 25.1846 29.0383 25.2582C29.1243 25.787 29.5126 26.0818 30.1012 26.0818H31.4556L30.2116 24.6401H31.943L33.0277 25.8978C33.228 25.7604 33.3594 25.5517 33.4055 25.2829C33.4197 25.2214 33.4197 25.1599 33.4197 25.0984V20.7344C33.4197 20.6855 33.4197 20.6236 33.4055 20.5621C33.3191 20.0702 32.9312 19.7879 32.3567 19.7879H30.1009C29.4404 19.7879 29.0093 20.1568 29.0093 20.7344V25.0612H29.0096Z" fill="#E48E00"/>
<path d="M43.6707 16.3756C42.7543 16.3434 42.0543 16.4529 41.4555 16.7767C41.2853 16.8689 41.0142 16.8712 40.9866 17.1447C41.0799 17.2709 41.0944 17.4587 41.1688 17.6133C41.3118 17.9101 41.5531 18.3079 41.7683 18.5161C42.0031 18.7439 42.2455 18.988 42.4981 19.1855C42.9463 19.5368 43.4471 19.7371 43.8793 20.0883C44.1337 20.2961 44.3863 20.557 44.6349 20.7913C44.7579 20.9063 44.84 21.0866 45 21.1588V21.1258C44.9162 20.9888 44.8944 20.8006 44.8175 20.6571L44.4785 20.222C44.1472 19.6574 43.7269 19.1622 43.2795 18.7504C42.9231 18.422 42.1254 17.9781 41.9766 17.4456L41.9505 17.4125C42.2031 17.3757 42.4992 17.2583 42.7322 17.1782C43.1241 17.0431 43.4743 17.0781 43.879 16.9439L44.4262 16.7427V16.6094C44.2219 16.3402 44.0757 15.9833 43.8529 15.7397C43.2697 15.102 42.6324 14.4647 41.9766 13.9327C41.613 13.6383 41.1634 13.4468 40.7776 13.1972C40.6484 13.1128 40.4205 13.0695 40.3345 12.9293C40.1316 12.5981 40.0217 12.1784 39.8652 11.7922C39.5386 10.9839 39.2171 10.1007 38.9271 9.24962C38.7297 8.66965 38.6005 8.0976 38.3541 7.57725C37.1707 5.07988 35.8969 3.57242 33.9237 2.09105C33.5039 1.77568 32.9983 1.65177 32.4645 1.48919L31.6044 1.42211C31.4298 1.32847 31.2477 1.05363 31.0833 0.920398C30.4293 0.390272 28.7527 -0.762683 28.2686 0.753626C27.963 1.71046 28.7258 2.64401 28.9984 3.12895C29.1896 3.46901 29.435 3.85007 29.5718 4.23252C29.6618 4.48407 29.677 4.73609 29.7543 5.00209C29.9434 5.65706 30.1085 6.37026 30.3535 6.97539C30.4772 7.28191 30.614 7.60474 30.7704 7.87865C30.8663 8.04636 31.031 8.12089 31.0568 8.38036C30.896 8.66918 30.8866 9.11825 30.7962 9.48394C30.389 11.1325 30.5425 13.1818 31.1352 14.4018C31.317 14.7768 31.7452 15.5799 32.3338 15.2715C32.8488 15.0023 32.7341 14.168 32.8815 13.4315C32.9149 13.2652 32.8942 13.1422 32.9595 13.0304V13.0639L33.4287 14.2681C33.776 14.986 34.3919 15.7355 34.9141 16.2419C35.1848 16.5041 35.3982 16.9583 35.7481 17.1116V17.0776H35.7223C35.6541 16.942 35.5485 16.8861 35.4614 16.7767C35.2574 16.52 35.0306 16.2014 34.8622 15.9069C34.3872 15.0796 33.9677 14.1736 33.5851 13.2307C33.4026 12.7807 33.244 12.2841 33.0901 11.8257C33.0306 11.6492 33.0314 11.3818 32.908 11.2909C32.7389 11.6263 32.491 11.8979 32.3603 12.2944C32.152 12.9279 32.1252 13.7007 32.0479 14.502L31.9956 14.535C31.6323 14.4228 31.505 13.943 31.37 13.5316C31.0288 12.4914 30.9653 10.8158 31.2658 9.6181C31.3435 9.30785 31.6944 8.33191 31.5521 8.04542C31.4843 7.75986 31.2604 7.59496 31.1355 7.37601C30.9806 7.10629 30.8256 6.75132 30.7186 6.43921C30.4391 5.62818 30.3088 4.71746 30.0152 3.89712C29.8744 3.50488 29.6371 3.10845 29.4418 2.76C29.2259 2.37335 28.9839 2.08919 28.8162 1.62242C28.7567 1.45658 28.6758 1.19058 28.7639 1.02009C28.7919 0.905024 28.8322 0.857042 28.9207 0.819309C29.0717 0.669775 29.4927 0.869155 29.6502 0.953007C30.0682 1.17614 30.417 1.3881 30.7712 1.68903C30.941 1.83391 31.1127 2.11341 31.3184 2.19074H31.5529C31.9198 2.29882 32.3309 2.22382 32.6735 2.35751C33.2796 2.59416 33.8225 2.96171 34.3153 3.3614C35.8174 4.57911 37.0451 6.31203 37.8856 8.37943C38.0206 8.71251 38.0794 9.02974 38.198 9.38285C38.4383 10.0947 38.741 10.8274 38.9798 11.5239C39.2182 12.2184 39.4508 12.9195 39.7879 13.4976C39.965 13.8013 40.6495 13.9644 40.9605 14.133C41.1786 14.2513 41.5357 14.3748 41.7422 14.5341C42.1367 14.8397 42.5192 15.2035 42.889 15.538C43.0737 15.7066 43.6424 16.0732 43.6707 16.3756V16.3756ZM32.0217 3.63065C31.8309 3.626 31.6955 3.65767 31.5525 3.69774V3.73081H31.5786C31.6697 3.97165 31.8305 4.12631 31.9434 4.33314L32.2043 5.03563L32.2301 5.00255C32.3915 4.85675 32.4652 4.62336 32.4645 4.26653C32.3995 4.17895 32.3901 4.06948 32.3342 3.96559C32.2602 3.82584 32.1157 3.74758 32.0217 3.63065V3.63065Z" fill="#00618A"/>
</svg>
