<svg width="40" height="20" viewBox="0 0 40 20" fill="none" xmlns="http://www.w3.org/2000/svg">
<path d="M10 6.66667C11.3333 2.22222 14.6667 0 20 0C28 0 29 5 33 5.83333C35.6667 6.38889 38 5.55556 40 3.33333C38.6667 7.77778 35.3333 10 30 10C22 10 21 5 17 4.16667C14.3333 3.61111 12 4.44444 10 6.66667ZM0 16.6667C1.33333 12.2222 4.66667 10 10 10C18 10 19 15 23 15.8333C25.6667 16.3889 28 15.5556 30 13.3333C28.6667 17.7778 25.3333 20 20 20C12 20 11 15 7 14.1667C4.33333 13.6111 2 14.4444 0 16.6667Z" fill="#44A8B3"/>
</svg>
