<svg width="40" height="40" viewBox="0 0 40 40" fill="none" xmlns="http://www.w3.org/2000/svg">
<path d="M38.268 8.85032L21.732 0.3666C20.7795 -0.1222 19.2205 -0.1222 18.268 0.3666L1.73203 8.85032C0.779343 9.33901 0 10.5387 0 11.5162V28.4838C0.0741118 29.6222 0.728433 30.565 1.73203 31.1497L18.268 39.6334C19.2205 40.1222 20.7795 40.1222 21.732 39.6334L38.268 31.1497C39.3448 30.5132 39.9577 29.5553 40 28.4838V11.5162C39.9613 10.4877 39.2682 9.45038 38.268 8.85032ZM6.66667 20.0001C6.58832 8.43062 24.0265 3.32201 31.5465 14.0721L25.7762 17.0393C22.2928 11.9195 13.6437 13.7502 13.3333 20.0001C13.4266 25.7601 21.9274 28.4359 25.7766 22.9604L31.5469 25.9275C24.9196 36.1512 7.0009 32.4729 6.66667 20.0001ZM33.3333 20.6582H31.8518V21.9748H30.3705V20.6582H28.8889V19.3418H30.3705V18.0253H31.8518V19.3418H33.3333V20.6582ZM38.8889 20.6582H37.4073V21.9748H35.926V20.6582H34.4444V19.3418H35.926V18.0253H37.4073V19.3418H38.8889V20.6582Z" fill="black"/>
</svg>
