<svg width="40" height="40" viewBox="0 0 40 40" fill="none" xmlns="http://www.w3.org/2000/svg">
<path d="M34.4392 23.014C33.1832 23.0162 31.944 23.3995 30.8153 24.135C30.4619 23.3523 30.189 22.5096 30.0039 21.6298C29.8976 20.9401 29.873 20.2324 29.9311 19.5326C30.0532 18.7624 30.2116 18.0034 30.4053 17.2599C30.3982 17.1627 30.3182 16.7032 29.514 16.6879C28.7098 16.6727 28.017 16.8919 27.9427 17.176C27.8031 17.6949 27.6909 18.2262 27.607 18.7661C26.9415 20.9577 26.1222 23.0605 25.1602 25.0464C24.6212 23.867 24.3995 22.4776 24.5316 21.1074C24.6537 20.3373 24.8121 19.5782 25.0059 18.8347C24.9987 18.7375 24.9187 18.278 24.1145 18.2628C23.3103 18.2475 22.6176 18.4668 22.5433 18.7509C22.469 19.0349 22.3747 19.7041 22.2076 20.3409C22.0405 20.9777 20.0892 26.7966 19.5779 28.2971C19.315 29.0597 19.0879 29.6813 18.9279 30.1007C18.9203 30.128 18.9108 30.1541 18.8994 30.1789C18.7565 30.5392 18.6808 30.7356 18.6808 30.7356V30.7451C18.5708 31.0082 18.4537 31.2523 18.3951 31.2523C18.293 30.7076 18.2979 30.1369 18.4094 29.5955C18.6951 27.5764 19.395 24.4382 19.3879 24.3295C19.3879 24.2704 19.5193 23.7251 18.9351 23.4429C18.7996 23.3569 18.6474 23.329 18.4996 23.3631C18.3517 23.3973 18.2154 23.4918 18.1094 23.6336C18.058 23.6336 18.0223 23.7995 18.0223 23.7995C18.0223 23.7995 18.658 20.2704 16.8096 20.2704C16.0898 20.4636 15.4062 20.8471 14.7991 21.3981C14.1919 21.9492 13.6735 22.6567 13.2742 23.4792C12.7771 23.8395 11.7187 24.6098 10.5859 25.4391C10.1574 25.7613 9.70887 26.0836 9.2932 26.3924C9.26463 26.3543 9.23464 26.3047 9.20607 26.2666C6.9563 23.0673 2.82101 20.81 2.99956 16.5297C3.06527 14.9701 3.46666 10.8748 10.9402 5.90052C17.091 1.85476 21.9862 2.97583 22.8332 5.46201C24.046 9.01206 20.2107 15.6031 13.8556 16.5583C13.1525 16.7487 12.4264 16.7257 11.7309 16.4911C11.0354 16.2564 10.3883 15.8161 9.83743 15.2027C9.50175 14.7146 9.45033 14.686 9.32606 14.7833C9.12179 14.9301 9.25321 15.3686 9.32606 15.6222C9.56849 16.2078 9.89641 16.7226 10.2904 17.1362C10.6844 17.5498 11.1366 17.8537 11.6201 18.0302C14.1202 18.7513 16.7268 18.4065 19.0722 17.0445C22.929 15.0559 25.9286 9.52683 25.0487 4.89575C24.1645 0.196041 18.3209 -1.35401 12.79 1.27326C9.3257 2.82917 6.12471 5.27993 3.36952 8.48584C0.322691 12.2895 -0.158689 15.5936 0.038434 16.9796C0.752647 21.8948 5.82499 25.0921 7.85478 27.4658C7.75193 27.544 7.65765 27.6126 7.57766 27.6698C6.56205 28.3428 2.69102 31.0445 1.72112 33.9005C0.625517 37.1417 1.89682 39.4582 2.73673 39.7709C4.00232 40.1752 5.33093 40.042 6.53707 39.3899C7.74321 38.7377 8.76669 37.5992 9.46461 36.1331C10.0589 34.9171 10.4242 33.5274 10.5294 32.0824C10.6347 30.6373 10.4766 29.1798 10.0688 27.8338C10.0619 27.812 10.0523 27.792 10.0403 27.7747L10.8359 27.1512C11.3544 26.7413 11.8658 26.3619 12.3043 26.0492C12.007 27.194 11.8324 28.3892 11.7858 29.5993C11.6848 31.4539 12.1101 33.2915 12.9771 34.747C13.109 34.8986 13.2622 35.0138 13.4277 35.0858C13.5932 35.1578 13.7678 35.1852 13.9413 35.1665C14.7984 35.1665 15.1912 34.2132 15.6211 33.0807C16.1468 31.6965 16.621 30.0874 16.621 30.0874C16.621 30.0874 16.0297 34.4363 17.6366 34.4363C18.2209 34.4363 18.8122 33.422 19.0765 32.911V32.9205C19.0765 32.9205 19.0908 32.8919 19.1208 32.8233L19.215 32.6193V32.6002C19.4493 32.055 19.975 30.8157 20.7563 28.7585C21.7648 26.1064 22.7361 22.7909 22.7361 22.7909C22.8298 23.5195 22.9591 24.2392 23.1232 24.9453C23.3585 25.8013 23.6367 26.635 23.956 27.441C23.7217 27.8795 23.576 28.1236 23.576 28.1236L23.5832 28.1331C23.3932 28.4649 23.1889 28.8252 22.9618 29.176C22.2861 30.1676 21.6591 31.2165 21.0849 32.3162C20.9995 32.5009 20.9702 32.722 21.0028 32.9346C21.0355 33.1472 21.1277 33.3351 21.2606 33.4601C21.5613 33.6689 21.904 33.7444 22.239 33.6755C22.7439 33.6375 23.2403 33.486 23.7074 33.2275C24.1588 33.0155 24.5847 32.7168 24.9716 32.3409C25.3705 31.9721 25.6915 31.4725 25.9039 30.8902C26.1163 30.3079 26.2129 29.6624 26.1843 29.0159C26.1394 28.2014 25.9835 27.4048 25.7244 26.6651C25.7972 26.5278 25.8672 26.3924 25.9358 26.2551C26.7479 24.6372 27.4799 22.9501 28.127 21.2046C28.2207 21.9333 28.35 22.6529 28.5141 23.3591C28.7081 24.0987 28.947 24.8161 29.2283 25.504C28.294 26.4634 27.5581 27.7244 27.09 29.1684C26.63 30.9434 26.9871 31.7423 27.6613 31.9272C28.0303 31.9612 28.3991 31.8603 28.7284 31.6355C29.2124 31.4232 29.6684 31.1105 30.0797 30.7089C30.5133 30.3673 30.8764 29.8873 31.1365 29.3118C31.3966 28.7364 31.5454 28.0837 31.5695 27.4124C31.5371 26.7424 31.4237 26.0838 31.2338 25.462C32.4667 24.8191 33.8034 24.6142 35.1134 24.8672C38.5902 25.4124 39.2773 28.3085 39.1459 29.5287C39.0842 29.9613 38.9539 30.3713 38.7637 30.731C38.5735 31.0908 38.3278 31.3921 38.0431 31.6145C37.8017 31.8185 37.7217 31.8872 37.7432 32.034C37.7717 32.2494 37.886 32.238 38.0931 32.1999C38.6171 31.9825 39.0795 31.5582 39.4191 30.983C39.7588 30.4077 39.9599 29.7086 39.9958 28.9777C40.1058 26.1179 38.0603 22.9815 34.4435 23.0101L34.4392 23.014ZM7.61337 35.0788C6.45921 36.7566 4.85223 37.3896 4.15801 36.8538C3.41237 36.2818 3.7052 33.8033 5.1222 32.0264C5.96276 31.0164 6.87127 30.1121 7.83621 29.3247C8.00476 29.1875 8.25331 28.993 8.55042 28.7528L8.63041 28.6937L8.80611 28.5469C9.05926 29.679 9.08222 30.8806 8.87262 32.0285C8.66302 33.1763 8.22841 34.2291 7.61337 35.0788V35.0788ZM16.0139 27.4525C15.6126 28.7585 14.7726 32.1045 14.2613 31.9177C13.8227 31.7613 13.5471 29.2256 14.1741 26.7204C14.4907 25.5143 14.9519 24.3849 15.5397 23.3762C16.1682 22.4401 16.8624 22.1274 17.0296 22.5087C16.8771 24.2149 16.5348 25.8811 16.0139 27.4525V27.4525ZM22.9461 31.8795C22.7775 31.9959 22.6176 32.0702 22.5447 32.0168C22.4933 31.9787 22.6176 31.8262 22.6176 31.8262C22.6176 31.8262 23.4875 30.5774 23.8303 30.013C24.0274 29.6813 24.2588 29.2923 24.5102 28.8519V28.9777C24.5102 30.4687 23.4289 31.4734 22.9475 31.8834L22.9461 31.8795ZM28.2941 30.2513C28.1698 30.135 28.1913 29.7442 28.6084 28.5259C28.8984 27.7434 29.3036 27.047 29.7997 26.4782C29.8757 26.7668 29.9153 27.0703 29.9168 27.3762C29.9224 28.0274 29.7664 28.6627 29.4732 29.1832C29.1799 29.7036 28.7658 30.0798 28.2955 30.2532L28.2941 30.2513Z" fill="#CD6799"/>
</svg>
